<?xml version="1.0" encoding="UTF-8" standalone="no"?>
<!-- Created with Inkscape (http://www.inkscape.org/) -->

<svg
   xmlns:osb="http://www.openswatchbook.org/uri/2009/osb"
   xmlns:dc="http://purl.org/dc/elements/1.1/"
   xmlns:cc="http://creativecommons.org/ns#"
   xmlns:rdf="http://www.w3.org/1999/02/22-rdf-syntax-ns#"
   xmlns:svg="http://www.w3.org/2000/svg"
   xmlns="http://www.w3.org/2000/svg"
   xmlns:xlink="http://www.w3.org/1999/xlink"
   xmlns:sodipodi="http://sodipodi.sourceforge.net/DTD/sodipodi-0.dtd"
   xmlns:inkscape="http://www.inkscape.org/namespaces/inkscape"
   width="360"
   height="640"
   id="svg2"
   version="1.1"
   inkscape:version="0.48.2 r9819"
   sodipodi:docname="splashscreen.svg"
   inkscape:export-filename="C:\Users\aldi\Dropbox\Project\tudulis\splashscreen_640.png"
   inkscape:export-xdpi="90"
   inkscape:export-ydpi="90">
  <defs
     id="defs4">
    <linearGradient
       gradientTransform="translate(323.72464,915.97891)"
       inkscape:collect="always"
       xlink:href="#HIGHLIGHTS_RO5_1_"
       id="linearGradient4048"
       gradientUnits="userSpaceOnUse"
       x1="47.9995"
       y1="8.2559004"
       x2="47.9995"
       y2="87.504303" />
    <linearGradient
       id="HIGHLIGHTS_RO5_1_"
       gradientUnits="userSpaceOnUse"
       x1="47.9995"
       y1="8.2559004"
       x2="47.9995"
       y2="87.504303">
      <stop
         offset="0"
         style="stop-color:#FFFFFF"
         id="stop6375" />
      <stop
         offset="0.0958"
         style="stop-color:#FDF8F5"
         id="stop6377" />
      <stop
         offset="0.2579"
         style="stop-color:#F6E6DB"
         id="stop6379" />
      <stop
         offset="0.4666"
         style="stop-color:#EBC9AF"
         id="stop6381" />
      <stop
         offset="0.7136"
         style="stop-color:#DCA073"
         id="stop6383" />
      <stop
         offset="0.9904"
         style="stop-color:#CA6D28"
         id="stop6385" />
      <stop
         offset="1"
         style="stop-color:#C96B25"
         id="stop6387" />
    </linearGradient>
    <linearGradient
       gradientTransform="translate(323.72464,915.97891)"
       inkscape:collect="always"
       xlink:href="#RED_x2F_ORANGE_5_2_-8"
       id="linearGradient4051"
       gradientUnits="userSpaceOnUse"
       x1="47.9995"
       y1="8.0107002"
       x2="47.9995"
       y2="87.9897" />
    <linearGradient
       id="RED_x2F_ORANGE_5_2_-8"
       gradientUnits="userSpaceOnUse"
       x1="47.9995"
       y1="8.0107002"
       x2="47.9995"
       y2="87.9897"
       osb:paint="gradient">
      <stop
         offset="0"
         style="stop-color:#FFDB62"
         id="stop6363" />
      <stop
         offset="0.1393"
         style="stop-color:#FAD15C"
         id="stop6365" />
      <stop
         offset="0.3741"
         style="stop-color:#EDB74D"
         id="stop6367" />
      <stop
         offset="0.4848"
         style="stop-color:#E6A844"
         id="stop6369" />
      <stop
         offset="1"
         style="stop-color:#C96B25"
         id="stop6371" />
    </linearGradient>
    <linearGradient
       inkscape:collect="always"
       xlink:href="#RED_x2F_ORANGE_5_2_-8"
       id="linearGradient4636"
       gradientUnits="userSpaceOnUse"
       gradientTransform="translate(323.72464,915.97891)"
       x1="47.9995"
       y1="8.0107002"
       x2="47.9995"
       y2="87.9897" />
    <linearGradient
       inkscape:collect="always"
       xlink:href="#HIGHLIGHTS_RO5_1_"
       id="linearGradient4638"
       gradientUnits="userSpaceOnUse"
       gradientTransform="translate(323.72464,915.97891)"
       x1="47.9995"
       y1="8.2559004"
       x2="47.9995"
       y2="87.504303" />
    <linearGradient
       inkscape:collect="always"
       xlink:href="#RED_x2F_ORANGE_5_2_-8"
       id="linearGradient4648"
       gradientUnits="userSpaceOnUse"
       gradientTransform="translate(323.72464,915.97891)"
       x1="47.9995"
       y1="8.0107002"
       x2="47.9995"
       y2="87.9897" />
    <linearGradient
       inkscape:collect="always"
       xlink:href="#HIGHLIGHTS_RO5_1_"
       id="linearGradient4650"
       gradientUnits="userSpaceOnUse"
       gradientTransform="translate(323.72464,915.97891)"
       x1="47.9995"
       y1="8.2559004"
       x2="47.9995"
       y2="87.504303" />
  </defs>
  <sodipodi:namedview
     id="base"
     pagecolor="#ffffff"
     bordercolor="#666666"
     borderopacity="1.0"
     inkscape:pageopacity="0.0"
     inkscape:pageshadow="2"
     inkscape:zoom="0.7"
     inkscape:cx="179.03664"
     inkscape:cy="305.05251"
     inkscape:document-units="px"
     inkscape:current-layer="layer3"
     showgrid="false"
     inkscape:window-width="1280"
     inkscape:window-height="738"
     inkscape:window-x="-8"
     inkscape:window-y="-8"
     inkscape:window-maximized="1" />
  <metadata
     id="metadata7">
    <rdf:RDF>
      <cc:Work
         rdf:about="">
        <dc:format>image/svg+xml</dc:format>
        <dc:type
           rdf:resource="http://purl.org/dc/dcmitype/StillImage" />
        <dc:title></dc:title>
      </cc:Work>
    </rdf:RDF>
  </metadata>
  <g
     inkscape:groupmode="layer"
     id="layer2"
     inkscape:label="Background"
     style="display:inline"
     transform="translate(0,160)">
    <rect
       style="color:#000000;fill:#000000;fill-opacity:1;fill-rule:evenodd;stroke:none;stroke-width:1px;marker:none;visibility:visible;display:inline;overflow:visible;enable-background:accumulate"
       id="rect3805"
       width="360"
       height="640"
       x="0"
       y="-160" />
  </g>
  <g
     inkscape:label="Logo"
     inkscape:groupmode="layer"
     id="layer1"
     transform="translate(0,-412.36218)">
    <text
       xml:space="preserve"
       style="font-size:40px;font-style:normal;font-variant:normal;font-weight:normal;font-stretch:normal;line-height:125%;letter-spacing:0px;word-spacing:0px;fill:#000000;fill-opacity:1;stroke:none;font-family:Nokia Pure Text;-inkscape-font-specification:Nokia Pure Text"
       x="65.659912"
       y="386.05582"
       id="text4575"
       sodipodi:linespacing="125%"
       transform="translate(0,572.36218)"><tspan
         sodipodi:role="line"
         id="tspan4577"
         x="65.659912"
         y="386.05582"></tspan></text>
  </g>
  <g
     inkscape:groupmode="layer"
     id="layer3"
     inkscape:label="Text"
     transform="translate(0,160)">
    <g
       id="g3797"
       transform="matrix(1.2496407,0,0,1.2345681,-284.53661,-1030.7149)">
      <path
         d="m 411.74764,964.97891 c 0,29.633 -10.364,39.99999 -40,39.99999 -29.635,0 -40,-10.36699 -40,-39.99999 0,-29.634 10.366,-40 40,-40 29.636,0 40,10.365 40,40 z"
         id="SHADOW"
         inkscape:connector-curvature="0"
         style="opacity:0.4;display:inline" />
      <path
         style="fill:url(#linearGradient4648);fill-opacity:1;display:inline"
         d="m 331.72464,963.96691 c 0,29.634 10.365,40.00099 40,40.00099 29.637,0 40,-10.36699 40,-40.00099 0,-28.984 -9.926,-39.529 -38.091,-39.978 h -3.817 c -28.164,0.449 -38.092,10.994 -38.092,39.978 z"
         id="RED_x2F_ORANGE_5_1_"
         inkscape:connector-curvature="0" />
      <path
         d="m 371.72464,923.97891 c -29.635,0 -40,10.365 -40,40 0,29.633 10.365,39.99999 40,39.99999 29.637,0 40,-10.36699 40,-39.99999 0,-29.635 -10.363,-40 -40,-40 z m 0,79.02299 c -29.158,0 -39,-9.84699 -39,-39.02299 0,-29.176 9.842,-39.023 39,-39.023 29.158,0 39,9.847 39,39.023 0,29.176 -9.842,39.02299 -39,39.02299 z"
         id="HIGHLIGHTS_RO5"
         inkscape:connector-curvature="0"
         style="opacity:0.25;fill:url(#linearGradient4650);display:inline" />
      <path
         inkscape:connector-curvature="0"
         id="rect5383-1"
         d="m 349.84964,939.40257 0,61.53123 c 12.27702,4.342 31.66008,4.3724 43.75,0 l 0,-61.53123 -43.75,0 z m 3.25,18.875 c 0.72487,0 1.3125,0.58763 1.3125,1.3125 0,0.72488 -0.58763,1.3125 -1.3125,1.3125 -0.72488,0 -1.3125,-0.58762 -1.3125,-1.3125 0,-0.72487 0.58762,-1.3125 1.3125,-1.3125 z m 0,9.28125 c 0.72487,0 1.3125,0.58763 1.3125,1.3125 0,0.72488 -0.58763,1.3125 -1.3125,1.3125 -0.72488,0 -1.3125,-0.58762 -1.3125,-1.3125 0,-0.72487 0.58762,-1.3125 1.3125,-1.3125 z m 0,9.1875 c 0.72487,0 1.3125,0.58763 1.3125,1.3125 0,0.72488 -0.58763,1.3125 -1.3125,1.3125 -0.72488,0 -1.3125,-0.58762 -1.3125,-1.3125 0,-0.72487 0.58762,-1.3125 1.3125,-1.3125 z"
         style="fill:#ffffff;fill-rule:evenodd;stroke:none;display:inline" />
      <path
         d="m 358.962,975.63583 c -10e-6,-0.63297 -0.0791,-1.18682 -0.23736,-1.66157 -1e-5,-1.42419 0.94945,-2.69014 2.8484,-3.79787 1.26594,-0.63296 2.21541,-0.94945 2.8484,-0.94947 0.79121,0.15826 1.34507,0.63299 1.66157,1.4242 0.94945,2.21544 1.58243,3.71876 1.89894,4.50997 0.31647,0.63299 0.63296,0.94948 0.94947,0.94947 0.31647,1e-5 0.63296,-0.23735 0.94947,-0.7121 5.38029,-9.49466 10.20675,-16.85303 14.47938,-22.07513 3.3231,-3.95608 5.38028,-6.25063 6.17155,-6.88365 2.53187,-1.89889 5.53851,-2.92748 9.01994,-3.08577 l 0.23737,1.18684 c -2.69021,2.6902 -7.35842,8.70349 -14.00465,18.03989 -6.48807,9.33645 -11.15628,16.69482 -14.00466,22.07513 -0.633,1.42421 -1.42422,2.29455 -2.37367,2.61104 -0.47475,0.47474 -1.50334,0.63298 -3.08577,0.47474 -1.10773,0.15824 -1.89895,0 -2.37367,-0.47474 -0.47475,-0.31649 -0.94948,-0.94946 -1.4242,-1.89893 -1.58246,-3.79787 -2.76929,-7.04188 -3.56051,-9.73205 z"
         style="font-size:60.76595688px;font-style:normal;font-weight:normal;line-height:125%;letter-spacing:0px;word-spacing:0px;fill:#64af2d;fill-opacity:1;stroke:none;display:inline;font-family:Sans"
         id="path3354"
         inkscape:connector-curvature="0" />
    </g>
    <text
       xml:space="preserve"
       style="font-size:20px;font-style:normal;font-variant:normal;font-weight:normal;font-stretch:normal;line-height:125%;letter-spacing:0px;word-spacing:0px;fill:#ffffff;fill-opacity:1;stroke:none;font-family:Nokia Pure Text;-inkscape-font-specification:Nokia Pure Text"
       x="120.91766"
       y="233.37"
       id="text4580"
       sodipodi:linespacing="125%"><tspan
         sodipodi:role="line"
         id="tspan4582"
         x="120.91766"
         y="233.37"
         style="font-size:20px;fill:#ffffff">tudulis v1.3.1</tspan></text>
  </g>
</svg>
