<?xml version="1.0"?>
<!-- Converted with SVG Converter - Version 0.9.5 (Compiled Mon May 30 09:08:51 2011) - Copyright (C) 2011 Nokia -->
<svg xmlns="http://www.w3.org/2000/svg" width="96" x="0px" y="0px" version="1.1" viewBox="0 0 96 96" height="96" xmlns:xlink="http://www.w3.org/1999/xlink" baseProfile="tiny" id="ORANGE_BACKGROUNDS" xml:space="preserve">
 <metadata id="metadata3069"/>
 <defs id="defs3067">
  <linearGradient id="linearGradient5113">
   <stop offset="0" style="stop-color:#64af2d;stop-opacity:1;" id="stop5115"/>
  </linearGradient>
  <linearGradient id="linearGradient5332">
   <stop offset="0" style="stop-color:#78c56d;stop-opacity:1;" id="stop5334"/>
  </linearGradient>
  <linearGradient id="linearGradient3799">
   <stop offset="0" style="stop-color:#7886e4;stop-opacity:1;" id="stop3801"/>
  </linearGradient>
  <linearGradient id="RED_x2F_ORANGE_5_2_-1" y1="8.0107002" x1="47.9995" y2="87.9897" gradientUnits="userSpaceOnUse" x2="47.9995">
   <stop offset="0" style="stop-color:#FFDB62" id="stop3054-7"/>
   <stop offset="0.1393" style="stop-color:#FAD15C" id="stop3056-4"/>
   <stop offset="0.3741" style="stop-color:#EDB74D" id="stop3058-0"/>
   <stop offset="0.4848" style="stop-color:#E6A844" id="stop3060-9"/>
   <stop offset="1" style="stop-color:#C96B25" id="stop3062-4"/>
  </linearGradient>
  <linearGradient gradientTransform="translate(2.000003,-1.988)" id="linearGradient3091" y1="8.0107002" y2="87.9897" x1="47.9995" x2="47.9995" gradientUnits="userSpaceOnUse">
   <stop offset="0" style="stop-color:#FFDB62" id="stop3054-7"/>
   <stop offset="0.1393" style="stop-color:#FAD15C" id="stop3056-4"/>
   <stop offset="0.3741" style="stop-color:#EDB74D" id="stop3058-0"/>
   <stop offset="0.4848" style="stop-color:#E6A844" id="stop3060-9"/>
   <stop offset="1" style="stop-color:#C96B25" id="stop3062-4"/>
  </linearGradient>
  <linearGradient gradientTransform="translate(1.5e-6,5e-4)" id="linearGradient3124" y1="8.0107002" x1="47.9995" y2="87.9897" gradientUnits="userSpaceOnUse" x2="47.9995">
   <stop offset="0" style="stop-color:#FFDB62" id="stop3054-7"/>
   <stop offset="0.1393" style="stop-color:#FAD15C" id="stop3056-4"/>
   <stop offset="0.3741" style="stop-color:#EDB74D" id="stop3058-0"/>
   <stop offset="0.4848" style="stop-color:#E6A844" id="stop3060-9"/>
   <stop offset="1" style="stop-color:#C96B25" id="stop3062-4"/>
  </linearGradient>
  <linearGradient gradientTransform="translate(1.5e-6,5e-4)" id="linearGradient3124-1" y1="8.0107002" x1="47.9995" y2="87.9897" gradientUnits="userSpaceOnUse" x2="47.9995">
   <stop offset="0" style="stop-color:#FFDB62" id="stop3054-7-4"/>
   <stop offset="0.1393" style="stop-color:#FAD15C" id="stop3056-4-0"/>
   <stop offset="0.3741" style="stop-color:#EDB74D" id="stop3058-0-9"/>
   <stop offset="0.4848" style="stop-color:#E6A844" id="stop3060-9-4"/>
   <stop offset="1" style="stop-color:#C96B25" id="stop3062-4-8"/>
  </linearGradient>
  <linearGradient id="RED_x2F_ORANGE_5_2_-1-7" y1="8.0107002" x1="47.9995" y2="87.9897" gradientUnits="userSpaceOnUse" x2="47.9995">
   <stop offset="0" style="stop-color:#FFDB62" id="stop3054-7-4"/>
   <stop offset="0.1393" style="stop-color:#FAD15C" id="stop3056-4-0"/>
   <stop offset="0.3741" style="stop-color:#EDB74D" id="stop3058-0-9"/>
   <stop offset="0.4848" style="stop-color:#E6A844" id="stop3060-9-4"/>
   <stop offset="1" style="stop-color:#C96B25" id="stop3062-4-8"/>
  </linearGradient>
  <linearGradient gradientTransform="translate(1.5e-6,5e-4)" id="linearGradient3234" y1="8.0107002" y2="87.9897" x1="47.9995" x2="47.9995" gradientUnits="userSpaceOnUse">
   <stop offset="0" style="stop-color:#FFDB62" id="stop3054-7-4"/>
   <stop offset="0.1393" style="stop-color:#FAD15C" id="stop3056-4-0"/>
   <stop offset="0.3741" style="stop-color:#EDB74D" id="stop3058-0-9"/>
   <stop offset="0.4848" style="stop-color:#E6A844" id="stop3060-9-4"/>
   <stop offset="1" style="stop-color:#C96B25" id="stop3062-4-8"/>
  </linearGradient>
  <linearGradient gradientTransform="translate(1.5e-6,5e-4)" id="linearGradient3234-8" y1="8.0107002" y2="87.9897" x1="47.9995" x2="47.9995" gradientUnits="userSpaceOnUse">
   <stop offset="0" style="stop-color:#FFDB62" id="stop3054-7-4-4"/>
   <stop offset="0.1393" style="stop-color:#FAD15C" id="stop3056-4-0-5"/>
   <stop offset="0.3741" style="stop-color:#EDB74D" id="stop3058-0-9-5"/>
   <stop offset="0.4848" style="stop-color:#E6A844" id="stop3060-9-4-1"/>
   <stop offset="1" style="stop-color:#C96B25" id="stop3062-4-8-7"/>
  </linearGradient>
  <linearGradient id="RED_x2F_ORANGE_5_2_-1-7-2" y1="8.0107002" x1="47.9995" y2="87.9897" gradientUnits="userSpaceOnUse" x2="47.9995">
   <stop offset="0" style="stop-color:#FFDB62" id="stop3054-7-4-4"/>
   <stop offset="0.1393" style="stop-color:#FAD15C" id="stop3056-4-0-5"/>
   <stop offset="0.3741" style="stop-color:#EDB74D" id="stop3058-0-9-5"/>
   <stop offset="0.4848" style="stop-color:#E6A844" id="stop3060-9-4-1"/>
   <stop offset="1" style="stop-color:#C96B25" id="stop3062-4-8-7"/>
  </linearGradient>
  <linearGradient gradientTransform="translate(1.5e-6,5e-4)" id="linearGradient3277" y1="8.0107002" y2="87.9897" x1="47.9995" x2="47.9995" gradientUnits="userSpaceOnUse">
   <stop offset="0" style="stop-color:#FFDB62" id="stop3054-7-4-4"/>
   <stop offset="0.1393" style="stop-color:#FAD15C" id="stop3056-4-0-5"/>
   <stop offset="0.3741" style="stop-color:#EDB74D" id="stop3058-0-9-5"/>
   <stop offset="0.4848" style="stop-color:#E6A844" id="stop3060-9-4-1"/>
   <stop offset="1" style="stop-color:#C96B25" id="stop3062-4-8-7"/>
  </linearGradient>
  <linearGradient id="linearGradient3803-1" y1="31.75" x1="-77.5" y2="31.75" x2="-15" gradientUnits="userSpaceOnUse">
   <stop offset="0" style="stop-color:#78d9e4;stop-opacity:1;" id="stop3801-4"/>
  </linearGradient>
  <linearGradient id="linearGradient3799-7">
   <stop offset="0" style="stop-color:#78d9e4;stop-opacity:1;" id="stop3801-4"/>
  </linearGradient>
  <linearGradient id="linearGradient3819-9" y1="31.75" y2="31.75" x1="-77.5" x2="-15" gradientUnits="userSpaceOnUse">
   <stop offset="0" style="stop-color:#782ee4;stop-opacity:1;" id="stop3801-4-8"/>
  </linearGradient>
  <linearGradient id="linearGradient3799-7-4">
   <stop offset="0" style="stop-color:#782ee4;stop-opacity:1;" id="stop3801-4-8"/>
  </linearGradient>
  <linearGradient id="linearGradient3850-2" y1="31.75" y2="31.75" x1="-77.5" x2="-15" gradientUnits="userSpaceOnUse">
   <stop offset="0" style="stop-color:#782e38;stop-opacity:1;" id="stop3801-4-8-5"/>
  </linearGradient>
  <linearGradient id="linearGradient3799-7-4-4">
   <stop offset="0" style="stop-color:#782e38;stop-opacity:1;" id="stop3801-4-8-5"/>
  </linearGradient>
  <linearGradient gradientTransform="translate(1.5e-6,5e-4)" id="linearGradient3277-1" y1="8.0107002" y2="87.9897" x1="47.9995" x2="47.9995" gradientUnits="userSpaceOnUse">
   <stop offset="0" style="stop-color:#FFDB62" id="stop3054-7-4-4-4"/>
   <stop offset="0.1393" style="stop-color:#FAD15C" id="stop3056-4-0-5-0"/>
   <stop offset="0.3741" style="stop-color:#EDB74D" id="stop3058-0-9-5-9"/>
   <stop offset="0.4848" style="stop-color:#E6A844" id="stop3060-9-4-1-4"/>
   <stop offset="1" style="stop-color:#C96B25" id="stop3062-4-8-7-8"/>
  </linearGradient>
  <linearGradient id="RED_x2F_ORANGE_5_2_-1-7-2-7" y1="8.0107002" x1="47.9995" y2="87.9897" gradientUnits="userSpaceOnUse" x2="47.9995">
   <stop offset="0" style="stop-color:#FFDB62" id="stop3054-7-4-4-4"/>
   <stop offset="0.1393" style="stop-color:#FAD15C" id="stop3056-4-0-5-0"/>
   <stop offset="0.3741" style="stop-color:#EDB74D" id="stop3058-0-9-5-9"/>
   <stop offset="0.4848" style="stop-color:#E6A844" id="stop3060-9-4-1-4"/>
   <stop offset="1" style="stop-color:#C96B25" id="stop3062-4-8-7-8"/>
  </linearGradient>
  <linearGradient gradientTransform="translate(1.5e-6,5e-4)" id="linearGradient4552" y1="8.0107002" y2="87.9897" x1="47.9995" x2="47.9995" gradientUnits="userSpaceOnUse">
   <stop offset="0" style="stop-color:#FFDB62" id="stop3054-7-4-4-4"/>
   <stop offset="0.1393" style="stop-color:#FAD15C" id="stop3056-4-0-5-0"/>
   <stop offset="0.3741" style="stop-color:#EDB74D" id="stop3058-0-9-5-9"/>
   <stop offset="0.4848" style="stop-color:#E6A844" id="stop3060-9-4-1-4"/>
   <stop offset="1" style="stop-color:#C96B25" id="stop3062-4-8-7-8"/>
  </linearGradient>
  <linearGradient gradientTransform="translate(1.5e-6,5e-4)" id="linearGradient4552-2" y1="8.0107002" y2="87.9897" x1="47.9995" x2="47.9995" gradientUnits="userSpaceOnUse">
   <stop offset="0" style="stop-color:#FFDB62" id="stop3054-7-4-4-4-5"/>
   <stop offset="0.1393" style="stop-color:#FAD15C" id="stop3056-4-0-5-0-5"/>
   <stop offset="0.3741" style="stop-color:#EDB74D" id="stop3058-0-9-5-9-1"/>
   <stop offset="0.4848" style="stop-color:#E6A844" id="stop3060-9-4-1-4-7"/>
   <stop offset="1" style="stop-color:#C96B25" id="stop3062-4-8-7-8-1"/>
  </linearGradient>
  <linearGradient id="RED_x2F_ORANGE_5_2_-1-7-2-7-4" y1="8.0107002" x1="47.9995" y2="87.9897" gradientUnits="userSpaceOnUse" x2="47.9995">
   <stop offset="0" style="stop-color:#FFDB62" id="stop3054-7-4-4-4-5"/>
   <stop offset="0.1393" style="stop-color:#FAD15C" id="stop3056-4-0-5-0-5"/>
   <stop offset="0.3741" style="stop-color:#EDB74D" id="stop3058-0-9-5-9-1"/>
   <stop offset="0.4848" style="stop-color:#E6A844" id="stop3060-9-4-1-4-7"/>
   <stop offset="1" style="stop-color:#C96B25" id="stop3062-4-8-7-8-1"/>
  </linearGradient>
  <linearGradient id="RED_x2F_ORANGE_5_2_-8" y1="8.0107002" x1="47.9995" y2="87.9897" gradientUnits="userSpaceOnUse" x2="47.9995">
   <stop offset="0" style="stop-color:#FFDB62" id="stop6363"/>
   <stop offset="0.1393" style="stop-color:#FAD15C" id="stop6365"/>
   <stop offset="0.3741" style="stop-color:#EDB74D" id="stop6367"/>
   <stop offset="0.4848" style="stop-color:#E6A844" id="stop6369"/>
   <stop offset="1" style="stop-color:#C96B25" id="stop6371"/>
  </linearGradient>
  <linearGradient id="HIGHLIGHTS_RO5_1_" y1="8.2559004" x1="47.9995" y2="87.504303" gradientUnits="userSpaceOnUse" x2="47.9995">
   <stop offset="0" style="stop-color:#FFFFFF" id="stop6375"/>
   <stop offset="0.0958" style="stop-color:#FDF8F5" id="stop6377"/>
   <stop offset="0.2579" style="stop-color:#F6E6DB" id="stop6379"/>
   <stop offset="0.4666" style="stop-color:#EBC9AF" id="stop6381"/>
   <stop offset="0.7136" style="stop-color:#DCA073" id="stop6383"/>
   <stop offset="0.9904" style="stop-color:#CA6D28" id="stop6385"/>
   <stop offset="1" style="stop-color:#C96B25" id="stop6387"/>
  </linearGradient>
  <linearGradient id="linearGradient4048" y1="8.2559004" x1="47.9995" y2="87.504303" gradientUnits="userSpaceOnUse" x2="47.9995">
   <stop offset="0" style="stop-color:#FFFFFF" id="stop6375"/>
   <stop offset="0.0958" style="stop-color:#FDF8F5" id="stop6377"/>
   <stop offset="0.2579" style="stop-color:#F6E6DB" id="stop6379"/>
   <stop offset="0.4666" style="stop-color:#EBC9AF" id="stop6381"/>
   <stop offset="0.7136" style="stop-color:#DCA073" id="stop6383"/>
   <stop offset="0.9904" style="stop-color:#CA6D28" id="stop6385"/>
   <stop offset="1" style="stop-color:#C96B25" id="stop6387"/>
  </linearGradient>
  <linearGradient id="linearGradient4051" y1="8.0107002" x1="47.9995" y2="87.9897" gradientUnits="userSpaceOnUse" x2="47.9995">
   <stop offset="0" style="stop-color:#FFDB62" id="stop6363"/>
   <stop offset="0.1393" style="stop-color:#FAD15C" id="stop6365"/>
   <stop offset="0.3741" style="stop-color:#EDB74D" id="stop6367"/>
   <stop offset="0.4848" style="stop-color:#E6A844" id="stop6369"/>
   <stop offset="1" style="stop-color:#C96B25" id="stop6371"/>
  </linearGradient>
  <linearGradient gradientTransform="matrix(0.14388489,0,0,0.14184397,113.31386,2.588652)" id="linearGradient5117" y1="-35.875" x1="-54.5" y2="-35.875" x2="-19.75" gradientUnits="userSpaceOnUse">
   <stop offset="0" style="stop-color:#64af2d;stop-opacity:1;" id="stop5115"/>
  </linearGradient>
  <linearGradient gradientTransform="matrix(0.14388489,0,0,0.14184397,-12.158274,-16.411348)" id="linearGradient5117-3" y1="-35.875" x1="-54.5" y2="-35.875" x2="-19.75" gradientUnits="userSpaceOnUse">
   <stop offset="0" style="stop-color:#449311;stop-opacity:1;" id="stop5115-9"/>
  </linearGradient>
  <linearGradient id="linearGradient5113-1">
   <stop offset="0" style="stop-color:#449311;stop-opacity:1;" id="stop5115-9"/>
  </linearGradient>
  <linearGradient gradientTransform="matrix(0.14388489,0,0,0.14184397,113.31386,7.588652)" id="linearGradient5133" y1="-35.875" y2="-35.875" x1="-54.5" x2="-19.75" gradientUnits="userSpaceOnUse">
   <stop offset="0" style="stop-color:#449311;stop-opacity:1;" id="stop5115-9"/>
  </linearGradient>
  <linearGradient gradientTransform="matrix(0.14388489,0,0,0.14184397,-7.158274,-16.411348)" id="linearGradient5133-6" y1="-35.875" y2="-35.875" x1="-54.5" x2="-19.75" gradientUnits="userSpaceOnUse">
   <stop offset="0" style="stop-color:#128406;stop-opacity:1;" id="stop5115-9-0"/>
  </linearGradient>
  <linearGradient id="linearGradient5113-1-5">
   <stop offset="0" style="stop-color:#128406;stop-opacity:1;" id="stop5115-9-0"/>
  </linearGradient>
  <linearGradient gradientTransform="matrix(0.14388489,0,0,0.14184397,113.31386,12.588652)" id="linearGradient5164" y1="-35.875" y2="-35.875" x1="-54.5" x2="-19.75" gradientUnits="userSpaceOnUse">
   <stop offset="0" style="stop-color:#128406;stop-opacity:1;" id="stop5115-9-0"/>
  </linearGradient>
  <linearGradient gradientTransform="matrix(0.14388489,0,0,0.14184397,-2.158274,-16.411348)" id="linearGradient5164-8" y1="-35.875" y2="-35.875" x1="-54.5" x2="-19.75" gradientUnits="userSpaceOnUse">
   <stop offset="0" style="stop-color:#009351;stop-opacity:1;" id="stop5115-9-0-0"/>
  </linearGradient>
  <linearGradient id="linearGradient5113-1-5-6">
   <stop offset="0" style="stop-color:#009351;stop-opacity:1;" id="stop5115-9-0-0"/>
  </linearGradient>
  <linearGradient gradientTransform="matrix(0.14388489,0,0,0.14184397,113.31386,17.588652)" id="linearGradient5195" y1="-35.875" y2="-35.875" x1="-54.5" x2="-19.75" gradientUnits="userSpaceOnUse">
   <stop offset="0" style="stop-color:#009351;stop-opacity:1;" id="stop5115-9-0-0"/>
  </linearGradient>
  <linearGradient gradientTransform="matrix(0.14388489,0,0,0.14184397,113.31386,37.588652)" id="linearGradient5195-4" y1="-35.875" y2="-35.875" x1="-54.5" x2="-19.75" gradientUnits="userSpaceOnUse">
   <stop offset="0" style="stop-color:#1b34b2;stop-opacity:1;" id="stop5115-9-0-0-6"/>
  </linearGradient>
  <linearGradient id="linearGradient5113-1-5-6-8">
   <stop offset="0" style="stop-color:#1b34b2;stop-opacity:1;" id="stop5115-9-0-0-6"/>
  </linearGradient>
  <linearGradient gradientTransform="matrix(0.14388489,0,0,0.14184397,113.31386,32.588652)" id="linearGradient5164-5" y1="-35.875" y2="-35.875" x1="-54.5" x2="-19.75" gradientUnits="userSpaceOnUse">
   <stop offset="0" style="stop-color:#0066a8;stop-opacity:1;" id="stop5115-9-0-9"/>
  </linearGradient>
  <linearGradient id="linearGradient5113-1-5-0">
   <stop offset="0" style="stop-color:#0066a8;stop-opacity:1;" id="stop5115-9-0-9"/>
  </linearGradient>
  <linearGradient gradientTransform="matrix(0.14388489,0,0,0.14184397,113.31386,27.588652)" id="linearGradient5133-0" y1="-35.875" y2="-35.875" x1="-54.5" x2="-19.75" gradientUnits="userSpaceOnUse">
   <stop offset="0" style="stop-color:#0082b6;stop-opacity:1;" id="stop5115-9-6"/>
  </linearGradient>
  <linearGradient id="linearGradient5113-1-0">
   <stop offset="0" style="stop-color:#0082b6;stop-opacity:1;" id="stop5115-9-6"/>
  </linearGradient>
  <linearGradient gradientTransform="matrix(0.14388489,0,0,0.14184397,-12.158274,-16.411348)" id="linearGradient5117-1" y1="-35.875" x1="-54.5" y2="-35.875" x2="-19.75" gradientUnits="userSpaceOnUse">
   <stop offset="0" style="stop-color:#0d9758;stop-opacity:1;" id="stop5115-8"/>
  </linearGradient>
  <linearGradient id="linearGradient5113-3">
   <stop offset="0" style="stop-color:#0d9758;stop-opacity:1;" id="stop5115-8"/>
  </linearGradient>
  <linearGradient gradientTransform="matrix(0.14388489,0,0,0.14184397,113.31386,22.588652)" id="linearGradient5238" y1="-35.875" y2="-35.875" x1="-54.5" x2="-19.75" gradientUnits="userSpaceOnUse">
   <stop offset="0" style="stop-color:#0d9758;stop-opacity:1;" id="stop5115-8"/>
  </linearGradient>
  <linearGradient gradientTransform="matrix(0.14388489,0,0,0.14184397,-12.158274,-11.411348)" id="linearGradient5238-6" y1="-35.875" y2="-35.875" x1="-54.5" x2="-19.75" gradientUnits="userSpaceOnUse">
   <stop offset="0" style="stop-color:#2c00a5;stop-opacity:1;" id="stop5115-8-6"/>
  </linearGradient>
  <linearGradient id="linearGradient5113-3-0">
   <stop offset="0" style="stop-color:#2c00a5;stop-opacity:1;" id="stop5115-8-6"/>
  </linearGradient>
  <linearGradient gradientTransform="matrix(0.14388489,0,0,0.14184397,113.31386,47.588652)" id="linearGradient5133-0-6" y1="-35.875" y2="-35.875" x1="-54.5" x2="-19.75" gradientUnits="userSpaceOnUse">
   <stop offset="0" style="stop-color:#62226a;stop-opacity:1;" id="stop5115-9-6-8"/>
  </linearGradient>
  <linearGradient id="linearGradient5113-1-0-1">
   <stop offset="0" style="stop-color:#62226a;stop-opacity:1;" id="stop5115-9-6-8"/>
  </linearGradient>
  <linearGradient gradientTransform="matrix(0.14388489,0,0,0.14184397,113.31386,52.588652)" id="linearGradient5164-5-4" y1="-35.875" y2="-35.875" x1="-54.5" x2="-19.75" gradientUnits="userSpaceOnUse">
   <stop offset="0" style="stop-color:#e50c98;stop-opacity:1;" id="stop5115-9-0-9-6"/>
  </linearGradient>
  <linearGradient id="linearGradient5113-1-5-0-9">
   <stop offset="0" style="stop-color:#e50c98;stop-opacity:1;" id="stop5115-9-0-9-6"/>
  </linearGradient>
  <linearGradient gradientTransform="matrix(0.14388489,0,0,0.14184397,113.31386,57.588652)" id="linearGradient5195-4-3" y1="-35.875" y2="-35.875" x1="-54.5" x2="-19.75" gradientUnits="userSpaceOnUse">
   <stop offset="0" style="stop-color:#ec297b;stop-opacity:1;" id="stop5115-9-0-0-6-8"/>
  </linearGradient>
  <linearGradient id="linearGradient5113-1-5-6-8-7">
   <stop offset="0" style="stop-color:#ec297b;stop-opacity:1;" id="stop5115-9-0-0-6-8"/>
  </linearGradient>
  <linearGradient gradientTransform="matrix(0.14388489,0,0,0.14184397,113.31386,42.588652)" id="linearGradient5305" y1="-35.875" y2="-35.875" x1="-54.5" x2="-19.75" gradientUnits="userSpaceOnUse">
   <stop offset="0" style="stop-color:#2c00a5;stop-opacity:1;" id="stop5115-8-6"/>
  </linearGradient>
  <linearGradient gradientTransform="matrix(0.14388489,0,0,0.14184397,113.31386,77.588652)" id="linearGradient5195-4-3-3" y1="-35.875" y2="-35.875" x1="-54.5" x2="-19.75" gradientUnits="userSpaceOnUse">
   <stop offset="0" style="stop-color:#ff7a0d;stop-opacity:1;" id="stop5115-9-0-0-6-8-9"/>
  </linearGradient>
  <linearGradient id="linearGradient5113-1-5-6-8-7-5">
   <stop offset="0" style="stop-color:#ff7a0d;stop-opacity:1;" id="stop5115-9-0-0-6-8-9"/>
  </linearGradient>
  <linearGradient gradientTransform="matrix(0.14388489,0,0,0.14184397,113.31386,72.588652)" id="linearGradient5164-5-4-8" y1="-35.875" y2="-35.875" x1="-54.5" x2="-19.75" gradientUnits="userSpaceOnUse">
   <stop offset="0" style="stop-color:#ff5b00;stop-opacity:1;" id="stop5115-9-0-9-6-0"/>
  </linearGradient>
  <linearGradient id="linearGradient5113-1-5-0-9-4">
   <stop offset="0" style="stop-color:#ff5b00;stop-opacity:1;" id="stop5115-9-0-9-6-0"/>
  </linearGradient>
  <linearGradient gradientTransform="matrix(0.14388489,0,0,0.14184397,113.31386,67.588652)" id="linearGradient5133-0-6-7" y1="-35.875" y2="-35.875" x1="-54.5" x2="-19.75" gradientUnits="userSpaceOnUse">
   <stop offset="0" style="stop-color:#f74000;stop-opacity:1;" id="stop5115-9-6-8-3"/>
  </linearGradient>
  <linearGradient id="linearGradient5113-1-0-1-6">
   <stop offset="0" style="stop-color:#f74000;stop-opacity:1;" id="stop5115-9-6-8-3"/>
  </linearGradient>
  <linearGradient gradientTransform="matrix(0.14388489,0,0,0.14184397,-12.158274,-6.411348)" id="linearGradient5305-6" y1="-35.875" y2="-35.875" x1="-54.5" x2="-19.75" gradientUnits="userSpaceOnUse">
   <stop offset="0" style="stop-color:#e21429;stop-opacity:1;" id="stop5115-8-6-5"/>
  </linearGradient>
  <linearGradient id="linearGradient5113-3-0-1">
   <stop offset="0" style="stop-color:#e21429;stop-opacity:1;" id="stop5115-8-6-5"/>
  </linearGradient>
  <linearGradient gradientTransform="matrix(0.14388489,0,0,0.14184397,113.31386,62.588652)" id="linearGradient5372" y1="-35.875" y2="-35.875" x1="-54.5" x2="-19.75" gradientUnits="userSpaceOnUse">
   <stop offset="0" style="stop-color:#e21429;stop-opacity:1;" id="stop5115-8-6-5"/>
  </linearGradient>
  <linearGradient gradientTransform="matrix(0.14388489,0,0,0.14184397,113.31386,97.588652)" id="linearGradient5195-4-3-3-7" y1="-35.875" y2="-35.875" x1="-54.5" x2="-19.75" gradientUnits="userSpaceOnUse">
   <stop offset="0" style="stop-color:#e0e0e0;stop-opacity:1;" id="stop5115-9-0-0-6-8-9-7"/>
  </linearGradient>
  <linearGradient id="linearGradient5113-1-5-6-8-7-5-3">
   <stop offset="0" style="stop-color:#e0e0e0;stop-opacity:1;" id="stop5115-9-0-0-6-8-9-7"/>
  </linearGradient>
  <linearGradient gradientTransform="matrix(0.14388489,0,0,0.14184397,113.31386,92.588652)" id="linearGradient5164-5-4-8-2" y1="-35.875" y2="-35.875" x1="-54.5" x2="-19.75" gradientUnits="userSpaceOnUse">
   <stop offset="0" style="stop-color:#e8e8e8;stop-opacity:1;" id="stop5115-9-0-9-6-0-0"/>
  </linearGradient>
  <linearGradient id="linearGradient5113-1-5-0-9-4-6">
   <stop offset="0" style="stop-color:#e8e8e8;stop-opacity:1;" id="stop5115-9-0-9-6-0-0"/>
  </linearGradient>
  <linearGradient gradientTransform="matrix(0.14388489,0,0,0.14184397,113.31386,87.588652)" id="linearGradient5133-0-6-7-1" y1="-35.875" y2="-35.875" x1="-54.5" x2="-19.75" gradientUnits="userSpaceOnUse">
   <stop offset="0" style="stop-color:#f7d303;stop-opacity:1;" id="stop5115-9-6-8-3-5"/>
  </linearGradient>
  <linearGradient id="linearGradient5113-1-0-1-6-6">
   <stop offset="0" style="stop-color:#f7d303;stop-opacity:1;" id="stop5115-9-6-8-3-5"/>
  </linearGradient>
  <linearGradient gradientTransform="matrix(0.14388489,0,0,0.14184397,-12.158274,-1.411348)" id="linearGradient5372-7" y1="-35.875" y2="-35.875" x1="-54.5" x2="-19.75" gradientUnits="userSpaceOnUse">
   <stop offset="0" style="stop-color:#ffa300;stop-opacity:1;" id="stop5115-8-6-5-4"/>
  </linearGradient>
  <linearGradient id="linearGradient5113-3-0-1-5">
   <stop offset="0" style="stop-color:#ffa300;stop-opacity:1;" id="stop5115-8-6-5-4"/>
  </linearGradient>
  <linearGradient gradientTransform="matrix(0.14388489,0,0,0.14184397,113.31386,82.588652)" id="linearGradient5439" y1="-35.875" y2="-35.875" x1="-54.5" x2="-19.75" gradientUnits="userSpaceOnUse">
   <stop offset="0" style="stop-color:#ffa300;stop-opacity:1;" id="stop5115-8-6-5-4"/>
  </linearGradient>
  <linearGradient gradientTransform="matrix(0.14388489,0,0,0.14184397,-12.158274,8.588652)" id="linearGradient5164-5-4-8-2-1" y1="-35.875" y2="-35.875" x1="-54.5" x2="-19.75" gradientUnits="userSpaceOnUse">
   <stop offset="0" style="stop-color:#d3d3d3;stop-opacity:1;" id="stop5115-9-0-9-6-0-0-6"/>
  </linearGradient>
  <linearGradient id="linearGradient5113-1-5-0-9-4-6-4">
   <stop offset="0" style="stop-color:#d3d3d3;stop-opacity:1;" id="stop5115-9-0-9-6-0-0-6"/>
  </linearGradient>
  <linearGradient gradientTransform="matrix(0.14388489,0,0,0.14184397,113.31386,107.58865)" id="linearGradient5195-4-3-3-7-0" y1="-35.875" y2="-35.875" x1="-54.5" x2="-19.75" gradientUnits="userSpaceOnUse">
   <stop offset="0" style="stop-color:#cecece;stop-opacity:1;" id="stop5115-9-0-0-6-8-9-7-1"/>
  </linearGradient>
  <linearGradient id="linearGradient5113-1-5-6-8-7-5-3-7">
   <stop offset="0" style="stop-color:#cecece;stop-opacity:1;" id="stop5115-9-0-0-6-8-9-7-1"/>
  </linearGradient>
  <linearGradient gradientTransform="matrix(0.14388489,0,0,0.14184397,113.31386,102.58865)" id="linearGradient5498" y1="-35.875" y2="-35.875" x1="-54.5" x2="-19.75" gradientUnits="userSpaceOnUse">
   <stop offset="0" style="stop-color:#d3d3d3;stop-opacity:1;" id="stop5115-9-0-9-6-0-0-6"/>
  </linearGradient>
  <linearGradient id="SVGID_1_" y1="39.117199" x1="48.452099" y2="70.455498" gradientUnits="userSpaceOnUse" x2="48.452099">
   <stop offset="0.3232" style="stop-color:#FAFCEF" id="stop4392-1"/>
   <stop offset="1" style="stop-color:#D0CBC5" id="stop4394-7"/>
  </linearGradient>
  <linearGradient gradientTransform="translate(68.546831,-90.188689)" id="linearGradient4418" y1="39.117199" y2="70.455498" x1="48.452099" x2="48.452099" gradientUnits="userSpaceOnUse">
   <stop offset="0.3232" style="stop-color:#FAFCEF" id="stop4392-1"/>
   <stop offset="1" style="stop-color:#D0CBC5" id="stop4394-7"/>
  </linearGradient>
  <linearGradient gradientTransform="matrix(0,-79.244629,-79.244629,0,298.0083,460.06738)" id="linearGradient4305" y1="0" y2="0" x1="0" gradientUnits="userSpaceOnUse" x2="1">
   <stop offset="0" style="stop-opacity:1;stop-color:#ffffff" id="stop4307"/>
   <stop offset="1" style="stop-opacity:1;stop-color:#ffffff" id="stop4309"/>
  </linearGradient>
  <linearGradient gradientTransform="matrix(0,-79.244629,-79.244629,0,298.0083,460.06738)" id="linearGradient4287" y1="0" y2="0" x1="0" gradientUnits="userSpaceOnUse" x2="1">
   <stop offset="0" style="stop-opacity:1;stop-color:#ffffff" id="stop4289-2"/>
   <stop offset="1" style="stop-opacity:0;stop-color:#ffffff" id="stop4291"/>
  </linearGradient>
  <linearGradient gradientTransform="matrix(0,-74.982803,-74.982803,0,298.0083,464.77588)" id="linearGradient4247" y1="0" y2="0" x1="0" gradientUnits="userSpaceOnUse" x2="1">
   <stop offset="0" style="stop-opacity:1;stop-color:#ffffff" id="stop4249"/>
   <stop offset="1" style="stop-opacity:1;stop-color:#ffffff" id="stop4251"/>
  </linearGradient>
  <linearGradient gradientTransform="matrix(0,-74.982803,-74.982803,0,298.0083,464.77588)" id="linearGradient4229" y1="0" y2="0" x1="0" gradientUnits="userSpaceOnUse" x2="1">
   <stop offset="0" style="stop-opacity:1;stop-color:#ffffff" id="stop4231"/>
   <stop offset="1" style="stop-opacity:0.17999542;stop-color:#ffffff" id="stop4233"/>
  </linearGradient>
  <linearGradient gradientTransform="matrix(0,-80.694397,-80.694397,0,298.0083,460.85986)" id="linearGradient4189" y1="0" y2="0" x1="0" gradientUnits="userSpaceOnUse" x2="1">
   <stop offset="0" style="stop-opacity:1;stop-color:#000000" id="stop4191"/>
   <stop offset="1" style="stop-opacity:1;stop-color:#000000" id="stop4193"/>
  </linearGradient>
  <linearGradient gradientTransform="matrix(0,-80.694397,-80.694397,0,298.0083,460.85986)" id="linearGradient4171" y1="0" y2="0" x1="0" gradientUnits="userSpaceOnUse" x2="1">
   <stop offset="0" style="stop-opacity:0;stop-color:#ffffff" id="stop4173"/>
   <stop offset="1" style="stop-opacity:1;stop-color:#ffffff" id="stop4175"/>
  </linearGradient>
  <linearGradient gradientTransform="matrix(0,-80.694397,-80.694397,0,298.0083,460.85986)" id="linearGradient4171-4" y1="0" y2="0" x1="0" gradientUnits="userSpaceOnUse" x2="1">
   <stop offset="0" style="stop-opacity:0;stop-color:#ffffff" id="stop4173-9"/>
   <stop offset="1" style="stop-opacity:1;stop-color:#ffffff" id="stop4175-6"/>
  </linearGradient>
  <linearGradient gradientTransform="matrix(0,-80.694397,-80.694397,0,298.0083,460.85986)" id="linearGradient4189-3" y1="0" y2="0" x1="0" gradientUnits="userSpaceOnUse" x2="1">
   <stop offset="0" style="stop-opacity:1;stop-color:#000000" id="stop4191-7"/>
   <stop offset="1" style="stop-opacity:1;stop-color:#000000" id="stop4193-8"/>
  </linearGradient>
  <linearGradient gradientTransform="matrix(0,-74.982803,-74.982803,0,298.0083,464.77588)" id="linearGradient4229-7" y1="0" y2="0" x1="0" gradientUnits="userSpaceOnUse" x2="1">
   <stop offset="0" style="stop-opacity:1;stop-color:#ffffff" id="stop4231-6"/>
   <stop offset="1" style="stop-opacity:0.17999542;stop-color:#ffffff" id="stop4233-3"/>
  </linearGradient>
  <linearGradient gradientTransform="matrix(0,-74.982803,-74.982803,0,298.0083,464.77588)" id="linearGradient4247-6" y1="0" y2="0" x1="0" gradientUnits="userSpaceOnUse" x2="1">
   <stop offset="0" style="stop-opacity:1;stop-color:#ffffff" id="stop4249-1"/>
   <stop offset="1" style="stop-opacity:1;stop-color:#ffffff" id="stop4251-5"/>
  </linearGradient>
  <linearGradient gradientTransform="matrix(0,-79.244629,-79.244629,0,298.0083,460.06738)" id="linearGradient4287-1" y1="0" y2="0" x1="0" gradientUnits="userSpaceOnUse" x2="1">
   <stop offset="0" style="stop-opacity:1;stop-color:#ffffff" id="stop4289-2-6"/>
   <stop offset="1" style="stop-opacity:0;stop-color:#ffffff" id="stop4291-5"/>
  </linearGradient>
  <linearGradient gradientTransform="matrix(0,-79.244629,-79.244629,0,298.0083,460.06738)" id="linearGradient4305-7" y1="0" y2="0" x1="0" gradientUnits="userSpaceOnUse" x2="1">
   <stop offset="0" style="stop-opacity:1;stop-color:#ffffff" id="stop4307-5"/>
   <stop offset="1" style="stop-opacity:1;stop-color:#ffffff" id="stop4309-4"/>
  </linearGradient>
  <linearGradient gradientTransform="matrix(0,-80.694397,-80.694397,0,298.0083,460.85986)" id="linearGradient5735" y1="0" x1="0" y2="0" gradientUnits="userSpaceOnUse" x2="1">
   <stop offset="0" style="stop-opacity:1;stop-color:#000000" id="stop4191-7"/>
   <stop offset="1" style="stop-opacity:1;stop-color:#000000" id="stop4193-8"/>
  </linearGradient>
  <linearGradient gradientTransform="matrix(0,-74.982803,-74.982803,0,298.0083,464.77588)" id="linearGradient5737" y1="0" x1="0" y2="0" gradientUnits="userSpaceOnUse" x2="1">
   <stop offset="0" style="stop-opacity:1;stop-color:#ffffff" id="stop4249-1"/>
   <stop offset="1" style="stop-opacity:1;stop-color:#ffffff" id="stop4251-5"/>
  </linearGradient>
  <linearGradient gradientTransform="matrix(0,-79.244629,-79.244629,0,298.0083,460.06738)" id="linearGradient5739" y1="0" x1="0" y2="0" gradientUnits="userSpaceOnUse" x2="1">
   <stop offset="0" style="stop-opacity:1;stop-color:#ffffff" id="stop4307-5"/>
   <stop offset="1" style="stop-opacity:1;stop-color:#ffffff" id="stop4309-4"/>
  </linearGradient>
  <linearGradient gradientTransform="matrix(0,-79.244629,-79.244629,0,298.0083,460.06738)" id="linearGradient5928" y1="0" x1="0" y2="0" gradientUnits="userSpaceOnUse" x2="1">
   <stop offset="0" style="stop-opacity:1;stop-color:#ffffff" id="stop4307-5"/>
   <stop offset="1" style="stop-opacity:1;stop-color:#ffffff" id="stop4309-4"/>
  </linearGradient>
  <linearGradient gradientTransform="matrix(0,-74.982803,-74.982803,0,298.0083,464.77588)" id="linearGradient5940" y1="0" x1="0" y2="0" gradientUnits="userSpaceOnUse" x2="1">
   <stop offset="0" style="stop-opacity:1;stop-color:#ffffff" id="stop4249-1"/>
   <stop offset="1" style="stop-opacity:1;stop-color:#ffffff" id="stop4251-5"/>
  </linearGradient>
  <linearGradient gradientTransform="matrix(0,-80.694397,-80.694397,0,298.0083,460.85986)" id="linearGradient5952" y1="0" x1="0" y2="0" gradientUnits="userSpaceOnUse" x2="1">
   <stop offset="0" style="stop-opacity:1;stop-color:#000000" id="stop4191-7"/>
   <stop offset="1" style="stop-opacity:1;stop-color:#000000" id="stop4193-8"/>
  </linearGradient>
  <linearGradient gradientTransform="matrix(0,-74.982803,-74.982803,0,298.0083,464.77588)" id="linearGradient6110" y1="0" x1="0" y2="0" gradientUnits="userSpaceOnUse" x2="1">
   <stop offset="0" style="stop-opacity:1;stop-color:#ffffff" id="stop4249-1"/>
   <stop offset="1" style="stop-opacity:1;stop-color:#ffffff" id="stop4251-5"/>
  </linearGradient>
  <linearGradient gradientTransform="matrix(0,-79.244629,-79.244629,0,298.0083,460.06738)" id="linearGradient6612" y1="0" y2="0" x1="0" gradientUnits="userSpaceOnUse" x2="1">
   <stop offset="0" style="stop-opacity:1;stop-color:#ffffff" id="stop6614"/>
   <stop offset="1" style="stop-opacity:1;stop-color:#ffffff" id="stop6616"/>
  </linearGradient>
  <linearGradient gradientTransform="matrix(0,-79.244629,-79.244629,0,298.0083,460.06738)" id="linearGradient6594" y1="0" y2="0" x1="0" gradientUnits="userSpaceOnUse" x2="1">
   <stop offset="0" style="stop-opacity:1;stop-color:#ffffff" id="stop6596"/>
   <stop offset="1" style="stop-opacity:0;stop-color:#ffffff" id="stop6598"/>
  </linearGradient>
  <linearGradient gradientTransform="matrix(0,-74.982803,-74.982803,0,298.0083,464.77588)" id="linearGradient6554" y1="0" y2="0" x1="0" gradientUnits="userSpaceOnUse" x2="1">
   <stop offset="0" style="stop-opacity:1;stop-color:#ffffff" id="stop6556"/>
   <stop offset="1" style="stop-opacity:1;stop-color:#ffffff" id="stop6558"/>
  </linearGradient>
  <linearGradient gradientTransform="matrix(0,-74.982803,-74.982803,0,298.0083,464.77588)" id="linearGradient6536" y1="0" y2="0" x1="0" gradientUnits="userSpaceOnUse" x2="1">
   <stop offset="0" style="stop-opacity:1;stop-color:#ffffff" id="stop6538"/>
   <stop offset="1" style="stop-opacity:0.17999542;stop-color:#ffffff" id="stop6540"/>
  </linearGradient>
  <linearGradient gradientTransform="matrix(0,-80.694397,-80.694397,0,298.0083,460.85986)" id="linearGradient6496" y1="0" y2="0" x1="0" gradientUnits="userSpaceOnUse" x2="1">
   <stop offset="0" style="stop-opacity:1;stop-color:#000000" id="stop6498"/>
   <stop offset="1" style="stop-opacity:1;stop-color:#000000" id="stop6500"/>
  </linearGradient>
  <linearGradient gradientTransform="matrix(0,-80.694397,-80.694397,0,298.0083,460.85986)" id="linearGradient6478" y1="0" y2="0" x1="0" gradientUnits="userSpaceOnUse" x2="1">
   <stop offset="0" style="stop-opacity:0;stop-color:#ffffff" id="stop6480"/>
   <stop offset="1" style="stop-opacity:1;stop-color:#ffffff" id="stop6482"/>
  </linearGradient>
 </defs>
 <linearGradient id="RED_x2F_ORANGE_5_2_" y1="8.0107002" x1="47.9995" y2="87.9897" gradientUnits="userSpaceOnUse" x2="47.9995">
  <stop offset="0" style="stop-color:#FFDB62" id="stop3054"/>
  <stop offset="0.1393" style="stop-color:#FAD15C" id="stop3056"/>
  <stop offset="0.3741" style="stop-color:#EDB74D" id="stop3058"/>
  <stop offset="0.4848" style="stop-color:#E6A844" id="stop3060"/>
  <stop offset="1" style="stop-color:#C96B25" id="stop3062"/>
 </linearGradient>
 <g style="display:inline" id="layer5">
  <rect width="96" x="0" y="0" height="96" style="fill:#000000;fill-opacity:0;stroke:none;display:inline" id="rect3119"/>
 </g>
 <g style="display:inline" id="layer4">
  <path style="opacity:0.4" id="SHADOW" d="m 88.023,49 c 0,29.633 -10.364,40 -40,40 -29.635,0 -40,-10.367 -40,-40 0,-29.634 10.366,-40 40,-40 29.636,0 40,10.365 40,40 z"/>
 </g>
 <g style="display:inline" id="layer12">
  <path style="fill:url(#linearGradient4051);fill-opacity:1" id="RED_x2F_ORANGE_5_1_" d="m 8,47.988 c 0,29.634 10.365,40.001 40,40.001 29.637,0 40,-10.367 40,-40.001 C 88,19.004 78.074,8.459 49.909,8.01 H 46.092 C 17.928,8.459 8,19.004 8,47.988 z"/>
  <path style="opacity:0.25;fill:url(#linearGradient4048)" id="HIGHLIGHTS_RO5" d="M 48,8 C 18.365,8 8,18.365 8,48 8,77.633 18.365,88 48,88 77.637,88 88,77.633 88,48 88,18.365 77.637,8 48,8 z m 0,79.023 C 18.842,87.023 9,77.176 9,48 9,18.824 18.842,8.977 48,8.977 77.158,8.977 87,18.824 87,48 87,77.176 77.158,87.023 48,87.023 z"/>
 </g>
 <g style="display:inline" id="g5627">
  <path style="fill:#ffffff;fill-rule:evenodd;stroke:none;display:inline" id="rect5383" d="M 26.125,23.46875 26.125,85 c 12.277023,4.34196 31.660088,4.372332 43.75,0 l 0,-61.53125 -43.75,0 z m 3.25,18.875 c 0.724874,0 1.3125,0.587626 1.3125,1.3125 0,0.724874 -0.587626,1.3125 -1.3125,1.3125 -0.724874,0 -1.3125,-0.587626 -1.3125,-1.3125 0,-0.724874 0.587626,-1.3125 1.3125,-1.3125 z m 0,9.28125 c 0.724874,0 1.3125,0.587626 1.3125,1.3125 0,0.724874 -0.587626,1.3125 -1.3125,1.3125 -0.724874,0 -1.3125,-0.587626 -1.3125,-1.3125 0,-0.724874 0.587626,-1.3125 1.3125,-1.3125 z m 0,9.1875 c 0.724874,0 1.3125,0.587626 1.3125,1.3125 0,0.724874 -0.587626,1.3125 -1.3125,1.3125 -0.724874,0 -1.3125,-0.587626 -1.3125,-1.3125 0,-0.724874 0.587626,-1.3125 1.3125,-1.3125 z"/>
 </g>
 <g style="display:inline" id="layer7">
  <path style="font-size:60.76559067px;font-style:normal;font-weight:normal;line-height:125%;letter-spacing:0px;word-spacing:0px;fill:#000000;fill-opacity:1;stroke:none;font-family:Sans" id="path5718" d="M 35.237364,60.656918 C 35.237354,60.023952 35.158235,59.470096 35,58.995349 c -1e-5,-1.424187 0.949446,-2.690143 2.84837,-3.797872 1.265928,-0.632961 2.215383,-0.94945 2.848369,-0.949469 0.791199,0.158263 1.345047,0.632997 1.661549,1.424203 0.94944,2.21544 1.58241,3.718763 1.898914,4.509973 0.316466,0.632991 0.632951,0.94948 0.949456,0.949468 0.316466,1.2e-5 0.632952,-0.237356 0.949458,-0.7121 5.380227,-9.494659 10.206627,-16.85303 14.479214,-22.075133 3.323059,-3.956079 5.380213,-6.250624 6.171467,-6.883643 2.53184,-1.898894 5.53845,-2.927483 9.019838,-3.085772 L 76.064,29.561839 c -2.690176,2.690201 -7.358333,8.703492 -14.004486,18.039894 -6.487984,9.336451 -11.156141,16.694821 -14.004486,22.075132 -0.632993,1.424204 -1.424205,2.294548 -2.373641,2.611037 -0.474749,0.474734 -1.503326,0.632979 -3.085734,0.474734 -1.107715,0.158245 -1.898929,0 -2.373642,-0.474734 -0.474743,-0.316489 -0.94947,-0.949467 -1.424185,-1.898937 -1.58244,-3.797865 -2.76926,-7.041878 -3.560462,-9.732047 z"/>
  <g id="g5783">
   <path style="font-size:60.76559067px;font-style:normal;font-weight:normal;line-height:125%;letter-spacing:0px;word-spacing:0px;opacity:0.06666703;fill:#000000;fill-opacity:1;stroke:none;font-family:Sans" id="path5785" d="m 70.375,32.1875 c -8.807066,6.478752 -14.216067,16.845388 -20.0625,26.03125 -0.626534,3.352248 -5.382028,7.893546 -7.9375,3.6875 -1.116905,-2.436408 -2.022197,-6.952245 -4.6875,-3.40625 0.259113,3.912398 2.082771,8.462623 4.125,11.8125 5.190046,1.176952 5.199387,-6.231428 8.09375,-8.84375 C 56.113981,51.391332 63.360929,41.224443 70.375,32.1875 z"/>
   <path style="font-size:60.76559067px;font-style:normal;font-weight:normal;line-height:125%;letter-spacing:0px;word-spacing:0px;opacity:0.06666703;fill:#000000;fill-opacity:1;stroke:none;font-family:Sans" id="path5789" d="m 71.1875,31.46875 c -7.53865,3.840756 -11.535731,12.322664 -16.5,18.875 -3.549025,3.79475 -4.296669,10.642217 -9.125,12.9375 -3.992032,0.58709 -3.402911,-6.145494 -5.75,-6.625 -5.269419,1.377497 -0.821503,7.096736 -0.125,10.25 -0.434518,4.197609 5.320328,5.28169 6.5,1.75 7.347356,-13.205835 16.08664,-25.555028 25.4375,-37.375 l -0.4375,0.1875 z"/>
   <path style="font-size:60.76559067px;font-style:normal;font-weight:normal;line-height:125%;letter-spacing:0px;word-spacing:0px;opacity:0.06666703;fill:#000000;fill-opacity:1;stroke:none;font-family:Sans" id="path5793" d="m 72.5,30.65625 c -8.226297,2.72371 -12.107365,11.73421 -17.21875,18.125 -3.712128,4.170997 -4.884134,11.008405 -9.53125,14.0625 -4.027271,0.866314 -3.256207,-6.164269 -5.6875,-6.65625 -4.515857,0.754865 -3.266648,5.363873 -1.65625,8.28125 1.094101,2.902505 1.883058,8.322843 6.25,6.375 3.999355,-3.813146 5.725246,-10.119342 9.375,-14.53125 C 59.657675,47.580276 66.414716,38.398705 72.5,30.65625 z"/>
   <path style="font-size:60.76559067px;font-style:normal;font-weight:normal;line-height:125%;letter-spacing:0px;word-spacing:0px;opacity:0.06666703;fill:#000000;fill-opacity:1;stroke:none;font-family:Sans" id="path5797" d="M 73.59375,30.0625 C 64.963136,31.792994 60.989441,40.877514 55.90625,47.25 52.001283,51.893173 50.234593,58.349962 45.9375,62.4375 41.144895,63.67174 42.943897,52.342785 38,56.78125 c -3.778174,2.693463 0.833693,7.925884 1.40459,11.302694 0.244084,4.941046 7.319256,4.123373 7.97041,-0.115194 C 54.904604,54.709964 64.123038,41.603312 73.59375,30.0625 z"/>
   <path style="font-size:60.76559067px;font-style:normal;font-weight:normal;line-height:125%;letter-spacing:0px;word-spacing:0px;opacity:0.06666703;fill:#000000;fill-opacity:1;stroke:none;font-family:Sans" id="path5801" d="M 74.0625,29.625 C 65.048516,30.959179 60.843009,40.531841 55.59375,47.03125 51.819241,51.554797 49.978927,58.1518 45.6875,62.125 c -4.329319,0.48225 -2.574593,-9.657701 -7.40625,-5.96875 -4.839616,2.591302 0.06488,8.436197 0.792388,12.047441 0.294071,5.257623 7.848915,4.442836 8.613862,-0.04744 7.805413,-13.596573 16.82121,-26.699901 26.90625,-38.625 L 74.0625,29.625 z"/>
   <path style="font-size:60.76559067px;font-style:normal;font-weight:normal;line-height:125%;letter-spacing:0px;word-spacing:0px;opacity:0.06666703;fill:#000000;fill-opacity:1;stroke:none;font-family:Sans" id="path5805" d="M 74.625,29.1875 C 65.968226,29.862222 61.581513,38.767102 56.652884,44.866416 52.577623,50.174891 49.859903,56.441618 45.875,61.65625 c -3.549309,0.697438 -2.547503,-5.486736 -5.1875,-6.6875 -3.084054,0.231739 -6.318415,3.280978 -4.4375,6.5 1.583504,3.38865 1.764568,8.443611 5.0625,10.59375 2.9441,0.625733 5.848514,-0.627876 6.6875,-3.75 C 55.817048,54.512285 65.37102,41.217094 75.21875,29.125 L 74.625,29.1875 z"/>
   <path style="font-size:60.76559067px;font-style:normal;font-weight:normal;line-height:125%;letter-spacing:0px;word-spacing:0px;opacity:0.06666703;fill:#000000;fill-opacity:1;stroke:none;font-family:Sans" id="path5809" d="m 74.59375,28.8125 c -4.471976,0.372887 -8.315539,2.885691 -10.843907,6.427259 -7.092857,7.790443 -12.281317,16.950856 -17.687343,25.853991 -1.552125,1.35059 -2.521613,-1.397221 -2.875,-2.5 -0.763313,-1.394194 -1.186258,-4.888705 -3.5625,-3.75 -2.259424,0.646574 -5.017892,2.656598 -4.0625,5.3125 1.060282,3.906239 2.383572,7.924144 4.40625,11.4375 1.283345,1.375267 3.397629,0.836113 5.0625,0.6875 3.104509,-1.380148 3.585881,-5.308175 5.554997,-7.799995 C 57.879732,52.6556 65.77497,41.058004 74.71875,30.46875 c 0.762964,-0.571304 1.714548,-2.123666 -0.125,-1.65625 z"/>
   <path style="font-size:60.76559067px;font-style:normal;font-weight:normal;line-height:125%;letter-spacing:0px;word-spacing:0px;opacity:0.06666703;fill:#000000;fill-opacity:1;stroke:none;font-family:Sans" id="path5813" d="m 75.1875,28.3125 c -3.201208,0.272207 -6.47997,1.310582 -8.883211,3.476961 -2.571634,2.647224 -4.949591,5.508911 -7.253734,8.365583 -4.681637,6.138365 -8.705061,12.743781 -12.547025,19.430686 -0.385732,0.55226 -0.540933,1.314729 -1.28478,1.44552 -0.578296,-0.126908 -0.750574,-0.690786 -0.992559,-1.182257 -0.725198,-1.613016 -1.332399,-3.300305 -2.128065,-4.867866 -0.547992,-0.781884 -1.687319,-1.045544 -2.567564,-0.597354 -1.637797,0.511118 -3.214358,1.455474 -4.137783,2.89317 -0.46607,0.763657 -0.636928,1.689632 -0.299029,2.535557 0.05849,1.500668 0.741395,2.887899 1.162891,4.312669 0.912081,2.398503 1.737936,4.860564 2.916799,7.134991 0.391249,0.66452 0.907557,1.128281 1.513943,1.462452 0.925715,0.368839 1.913034,0.04377 2.868867,0.183638 0.796684,0.02531 1.652589,-0.07502 2.286598,-0.568389 1.223489,-0.494532 1.926434,-1.722364 2.46048,-2.880584 4.209303,-7.710344 9.140622,-14.997037 14.144974,-22.206866 3.211428,-4.444487 6.398316,-8.911263 9.832948,-13.187911 0.816658,-1.087452 1.868447,-2.26786 2.816896,-3.355579 0.270252,-0.462523 0.962359,-0.766318 1.037503,-1.273526 -0.174204,-0.516522 -0.0087,-1.447941 -0.822525,-1.127176 l -0.09987,0.005 -0.02575,0.0013 z"/>
   <path style="font-size:60.76559067px;font-style:normal;font-weight:normal;line-height:125%;letter-spacing:0px;word-spacing:0px;opacity:0.06666703;fill:#000000;fill-opacity:1;stroke:none;font-family:Sans" id="path5817" d="m 75.78125,28.03125 c -5.061515,0.04271 -9.657939,2.660008 -12.583613,6.717607 -7.060605,7.874806 -12.308276,16.92386 -17.728887,25.938643 -1.120863,0.188422 -1.165548,-1.968469 -1.73399,-2.672207 -0.662613,-1.723316 -1.529997,-4.809944 -4.01601,-3.984043 -2.653892,0.742866 -5.922998,3.039177 -4.84375,6.1875 0.981109,4.067492 2.45834,8.249294 4.53125,11.84375 1.470317,1.672612 4.014458,1.075989 5.96875,0.875 3.236629,-1.447352 3.798664,-5.473187 5.836247,-8.081245 7.384788,-12.032452 15.364764,-23.762989 24.570003,-34.512505 0.992217,-0.371292 0.635578,-2.176371 0,-2.3125 z"/>
   <path style="font-size:60.76559067px;font-style:normal;font-weight:normal;line-height:125%;letter-spacing:0px;word-spacing:0px;opacity:0.06666703;fill:#000000;fill-opacity:1;stroke:none;font-family:Sans" id="path5821" d="M 75.78125,27.65625 C 68.585294,27.486223 63.518427,33.116675 59.612077,38.460617 54.090155,45.22344 49.757137,53.180873 45.1875,60.3125 43.757142,58.066252 43.160184,52.217289 39.25,53.84375 c -3.552818,0.792784 -6.262206,4.503518 -4.375,8.0625 1.79255,3.720812 1.945537,9.310195 5.84375,11.46875 C 44.288892,74.346966 48.150041,72.75512 49.25,69 57.235779,55.24587 66.342863,41.724568 76.84375,29.78125 c -0.447318,-0.530991 0.100408,-2.601703 -1.0625,-2.125 z"/>
   <path style="font-size:60.76559067px;font-style:normal;font-weight:normal;line-height:125%;letter-spacing:0px;word-spacing:0px;opacity:0.06666703;fill:#000000;fill-opacity:1;stroke:none;font-family:Sans" id="path5825" d="M 75.75,27.3125 C 64.965547,27.36673 59.485833,38.403051 53.84375,45.84375 50.723564,50.298965 48.040419,55.111207 45.25,59.78125 44.645285,56.64829 42.183535,51.332516 38.3125,53.8125 c -4.685246,1.294292 -5.313556,6.753459 -3.03125,10.46875 1.516336,3.905476 2.699968,10.876453 8.40625,9.59375 6.550709,-0.404587 6.95906,-9.389611 10.90625,-13.1875 C 61.286761,49.834719 69.564626,39.210978 77.125,29.34375 76.599368,28.752446 77.404141,26.410603 75.75,27.3125 z"/>
   <path style="font-size:60.76559067px;font-style:normal;font-weight:normal;line-height:125%;letter-spacing:0px;word-spacing:0px;opacity:0.06666703;fill:#000000;fill-opacity:1;stroke:none;font-family:Sans" id="path5829" d="M 75.75,26.9375 C 64.806085,27.035736 59.254004,38.05654 53.53125,45.65625 50.563864,49.962387 47.952612,54.504028 45.3125,59 c -0.543977,-3.300283 -3.349426,-7.940368 -7.15625,-5.53125 -4.178296,1.274457 -5.74548,6.091599 -3.59375,9.75 1.718907,4.288857 2.758788,12.281597 9.125,11.03125 C 50.438,73.867438 50.914632,64.821406 54.90625,60.875 61.939758,50.242259 68.948196,39.403522 77.625,30.03125 76.941773,29.055744 77.90466,25.983476 75.75,26.9375 z"/>
   <path style="font-size:60.76559067px;font-style:normal;font-weight:normal;line-height:125%;letter-spacing:0px;word-spacing:0px;opacity:0.06666703;fill:#000000;fill-opacity:1;stroke:none;font-family:Sans" id="path5833" d="M 75.71875,26.59375 C 64.658084,26.653911 59.009141,37.810585 53.25,45.4375 50.339752,49.147575 47.654771,55.267758 45.1875,57.78125 44.824851,53.603613 40.468594,50.874198 37,53.625 c -4.994508,2.151759 -4.066645,8.113668 -1.96875,12.09375 1.30697,4.045148 3.132841,10.091877 8.65625,8.875 6.899729,-0.305134 7.534574,-9.406269 11.5,-13.53125 C 62.26868,50.407549 69.266878,39.528264 78,30.15625 c -0.753855,-1.299323 0.306654,-4.632527 -2.28125,-3.5625 z"/>
   <path style="font-size:60.76559067px;font-style:normal;font-weight:normal;line-height:125%;letter-spacing:0px;word-spacing:0px;opacity:0.06666703;fill:#000000;fill-opacity:1;stroke:none;font-family:Sans" id="path5837" d="M 75.71875,26.25 C 64.716799,26.246 59.035323,37.127375 53.2578,44.76955 50.457536,48.864967 47.922839,53.094568 45.40625,57.4375 45.013328,52.676541 39.79077,50.593457 36.3125,53.625 c -5.735314,2.996534 -2.679622,9.943955 -0.769005,14.403238 0.710817,4.59609 4.695939,8.252156 9.394005,6.815512 6.359337,-1.721357 6.964616,-10.130303 11.11075,-14.430064 6.825942,-10.279649 13.779513,-20.972078 22.358,-30.163686 -0.792701,-1.582773 0.195015,-5.182443 -2.6875,-4 z"/>
   <path style="font-size:60.76559067px;font-style:normal;font-weight:normal;line-height:125%;letter-spacing:0px;word-spacing:0px;opacity:0.06666703;fill:#000000;fill-opacity:1;stroke:none;font-family:Sans" id="path5841" d="M 75.6875,25.875 C 64.372743,25.94192 58.5482,37.144407 52.625,45.0625 c -2.53396,3.752088 -4.904533,7.62296 -7.15625,11.5625 -0.604043,-4.702743 -6.029046,-6.183457 -9.40625,-3.28125 -5.396043,2.831446 -3.271897,9.514955 -1.21875,13.875 0.914701,4.577574 4.23195,9.399965 9.5,8.09375 C 51.424365,74.160725 52.036156,65.1316 56.358481,60.599702 63.361929,50.085915 70.162766,39.549763 78.78125,30.375 c -0.964171,-1.866402 0.403258,-5.842185 -3.09375,-4.5 z"/>
  </g>
 </g>
 <g style="display:inline" id="layer2">
  <g style="font-size:60.76595688px;font-style:normal;font-weight:normal;line-height:125%;letter-spacing:0px;word-spacing:0px;fill:#64af2d;fill-opacity:1;stroke:none;display:inline;font-family:Sans" id="text5416">
   <path id="path3373" d="m 35.237367,59.656918 c -10e-6,-0.632967 -0.07913,-1.186822 -0.237367,-1.66157 -1e-5,-1.424187 0.949457,-2.690143 2.848404,-3.797872 1.265944,-0.632961 2.215411,-0.94945 2.848404,-0.949468 0.791207,0.158263 1.345063,0.632996 1.661569,1.424202 0.94945,2.21544 1.582428,3.718763 1.898936,4.509974 0.316471,0.63299 0.63296,0.949479 0.949469,0.949468 0.316469,1.1e-5 0.632958,-0.237356 0.949468,-0.712101 5.380292,-9.49466 10.20675,-16.85303 14.479388,-22.075133 3.323099,-3.956079 5.380278,-6.250625 6.171542,-6.883644 2.531871,-1.898893 5.538517,-2.927482 9.019947,-3.085771 l 0.237367,1.186835 c -2.690208,2.6902 -7.358421,8.703492 -14.004654,18.039894 -6.488062,9.336451 -11.156276,16.694821 -14.004654,22.075132 -0.633001,1.424204 -1.424224,2.294549 -2.37367,2.611038 -0.474754,0.474733 -1.503344,0.632978 -3.085772,0.474734 -1.107729,0.158244 -1.898951,-10e-7 -2.37367,-0.474734 -0.474748,-0.316489 -0.949482,-0.949467 -1.424202,-1.898937 -1.582459,-3.797866 -2.769293,-7.041879 -3.560505,-9.732047 z"/>
  </g>
 </g>
</svg>
